<svg xmlns="http://www.w3.org/2000/svg" viewBox="0 0 57.91 57.91"><defs><style>.cls-1{fill:#d1ac74;fill-rule:evenodd;}</style></defs><title>barcode</title><g id="Layer_2" data-name="Layer 2"><g id="Layer_1-2" data-name="Layer 1"><path class="cls-1" d="M.16,0H19.35V19.19c-6.13.37-12.95,0-19.34.16V.47C0,.25,0,0,.16,0ZM3,2.83C2.63,7.08,2.94,12,2.84,16.52H16.52V2.83Z"/><path class="cls-1" d="M27.53,0h2.84V8c1.46.37,3.61.06,5.34.16.34.66.08,1.92.16,2.83H30.21V8.49c-.58-.36-1.83-.05-2.68-.15V11H24.86v2.68c-.66.33-1.92.07-2.83.15V8.18h5.5Z"/><path class="cls-1" d="M38.7,0H57.89V19.19c-6.13.37-13,0-19.35.16V.47C38.53.25,38.52,0,38.7,0Zm2.83,2.83c-.36,4.25-.05,9.18-.15,13.69H55.06V2.83Z"/><path class="cls-1" d="M33,2.68h2.67c.34.66.08,1.91.16,2.83H33Z"/><path class="cls-1" d="M13.85,5.51v8.18c-2.47.36-5.61.05-8.34.15V5.51Z"/><path class="cls-1" d="M52.39,5.51v8.18c-2.47.36-5.61.05-8.34.15V5.51Z"/><path class="cls-1" d="M55.06,24.7h2.67c.34.66.08,1.91.16,2.83H55.06Z"/><path class="cls-1" d="M.16,38.54H19.35V57.73c-6.13.37-12.95.05-19.34.16V39C0,38.79,0,38.57.16,38.54ZM3,41.37c-.36,4.25-.05,9.18-.15,13.69H16.52V41.37Z"/><path class="cls-1" d="M13.85,44.05v8.17c-2.47.37-5.61.06-8.34.16V44.05Z"/><path class="cls-1" d="M30.37,16.52V22H24.7V19.5c-.58-.36-1.83-.05-2.67-.15V16.52h2.83V19c.58.37,1.83.06,2.67.16v-5.5H33v2.67c.63.36,1.94.05,2.83.16v2.67c-.66.34-1.92.08-2.83.16V16.67C32.46,16.31,31.21,16.62,30.37,16.52Z"/><path class="cls-1" d="M44.05,52.22h8c.37-.58.06-1.83.16-2.67H44.05V46.72h2.52c.36-1.47,0-3.62.15-5.35H44.05V38.54h2.52c.36-.58,0-1.83.15-2.68H44.05V33.19c-.58-.36-1.83,0-2.67-.16-.09.92.17,2.17-.16,2.83H38.7c-.36.59-.05,1.84-.16,2.68h2.84c-.09.91.17,2.17-.16,2.83H38.7c-.36.58-.05,1.83-.16,2.68h2.84c-.09.91.17,2.16-.16,2.83H38.7c-.37,1.52-.05,3.72-.16,5.5H33.19c-.36.58,0,1.83-.15,2.68h5.5v2.83h-11V55.06h2.52c.37-1.47.05-3.62.16-5.35-.58-.37-1.83-.06-2.68-.16v2.83H25c-.37,1.47-.06,3.62-.16,5.35-.66.33-1.92.08-2.83.16V52.22h2.51c.47-1.47-.14-4,.32-5.5h2.52c.36-.58.05-1.83.15-2.67h8.18c.08-.92-.17-2.18.16-2.84h2.52c.36-.58,0-1.83.15-2.67H30.37v2.67c-1.53.36-3.72.06-5.51.16v2.68H22V36c-2.42-.47-5.92.16-8.34-.31V33.19c-.58-.36-1.83,0-2.67-.16v2.83c-.92-.07-2.17.18-2.83-.15V33.19c-.58-.36-1.84,0-2.68-.16v2.83H0V33H2.68V30.36c2.42-.36,5.5-.06,8.18-.16.36-.58.05-1.83.16-2.67H5.51V25c-.58-.36-1.83-.05-2.67-.16v2.68H0V22h5.5v2.52c2.41.37,5.51.05,8.18.16V22H22V24.7H24.7c.33.61.08,1.8.16,2.67.58.36,1.83.05,2.67.16V24.7H33V22h2.83v2.52c2.41.37,5.51.05,8.18.16V22h5.5V24.7h2.68c.33.66.08,1.91.16,2.83H49.71c-.36.58-.05,1.83-.16,2.67h5.51v2.68c.63.36,1.94,0,2.83.15-.08.92.18,2.17-.16,2.83H52.54c-.36.59,0,1.84-.15,2.68h2.67v2.83H52.39v2.68H49.71c-.36.57-.05,1.83-.16,2.67h5.51V44.05h2.83c-.08.91.18,2.16-.16,2.83H55.22c-.37.58-.06,1.83-.16,2.67h2.83v5.51H55.22c-.37.63-.06,1.93-.16,2.83-.91-.08-2.17.17-2.83-.16V55.21c-.58-.36-1.83-.05-2.68-.15v2.83c-.91-.08-2.16.17-2.83-.16V55.21c-.58-.36-1.83-.05-2.67-.15v2.83H41.38c-.34-.67-.08-1.92-.16-2.83h2.83ZM16.52,27.53H13.85V30.2h2.67V27.53h2.83c-.08.91.18,2.17-.15,2.83H16.52V33c1.79.11,4-.2,5.51.16v2.52H24.7V30.36H22V24.85H16.52Zm16.36,0H30.37V30.2H33V27.53h2.67V24.85H33C32.94,25.7,33.24,27,32.88,27.53Zm8.5,2.67h5.34V27.53H41.38ZM33,33H27.53v5.51h2.68c.08-.92-.18-2.17.16-2.83H33V33h5.5V30.36H33Zm13.84,2.68h5.35V33H46.88Zm2.67,5.5h2.68V38.54H49.55ZM33,49.55h2.67V46.88H33Z"/></g></g></svg>