<svg id="Layer_1" data-name="Layer 1" xmlns="http://www.w3.org/2000/svg" xmlns:xlink="http://www.w3.org/1999/xlink" viewBox="0 0 260.35 87.05"><defs><style>.cls-1{fill:none;}.cls-2{clip-path:url(#clip-path);}.cls-3{fill:url(#New_Gradient_Swatch_3);}.cls-4,.cls-5,.cls-6,.cls-7{fill-rule:evenodd;}.cls-4{fill:url(#New_Gradient_Swatch_3-2);}.cls-5{fill:url(#New_Gradient_Swatch_3-3);}.cls-6{fill:url(#New_Gradient_Swatch_3-4);}.cls-7{fill:url(#New_Gradient_Swatch_3-5);}.cls-8{fill:url(#linear-gradient);}.cls-9{fill:url(#linear-gradient-2);}.cls-10{fill:url(#linear-gradient-3);}.cls-11{fill:url(#linear-gradient-4);}.cls-12{fill:url(#linear-gradient-5);}.cls-13{fill:url(#linear-gradient-6);}.cls-14{fill:url(#linear-gradient-7);}.cls-15{fill:url(#linear-gradient-8);}.cls-16{fill:url(#linear-gradient-9);}.cls-17{fill:url(#linear-gradient-10);}</style><clipPath id="clip-path"><rect class="cls-1" x="0.33" y="8.94" width="78.46" height="41.85"/></clipPath><linearGradient id="New_Gradient_Swatch_3" x1="38.88" y1="20.87" x2="39.82" y2="61.68" gradientUnits="userSpaceOnUse"><stop offset="0.1" stop-color="#fcee1f"/><stop offset="0.19" stop-color="#fcea20"/><stop offset="0.27" stop-color="#fbe022"/><stop offset="0.34" stop-color="#facd25"/><stop offset="0.42" stop-color="#f9b329"/><stop offset="0.49" stop-color="#f7932f"/><stop offset="0.51" stop-color="#f68831"/><stop offset="0.93" stop-color="#f15b2a"/></linearGradient><linearGradient id="New_Gradient_Swatch_3-2" x1="56.89" y1="82.07" x2="-15.77" y2="83.4" xlink:href="#New_Gradient_Swatch_3"/><linearGradient id="New_Gradient_Swatch_3-3" x1="56.78" y1="76.07" x2="-15.88" y2="77.4" xlink:href="#New_Gradient_Swatch_3"/><linearGradient id="New_Gradient_Swatch_3-4" x1="56.66" y1="69.42" x2="-16.01" y2="70.76" xlink:href="#New_Gradient_Swatch_3"/><linearGradient id="New_Gradient_Swatch_3-5" x1="203.85" y1="166.43" x2="131.18" y2="167.76" gradientTransform="translate(-147.41 -109.41)" xlink:href="#New_Gradient_Swatch_3"/><linearGradient id="linear-gradient" x1="213.46" y1="-33.58" x2="243.46" y2="19.54" gradientUnits="userSpaceOnUse"><stop offset="0.1" stop-color="#e9e9e9"/><stop offset="0.19" stop-color="#e5e5e5"/><stop offset="0.27" stop-color="#dbdbdb"/><stop offset="0.34" stop-color="#c8c8c8"/><stop offset="0.41" stop-color="#aeaeae"/><stop offset="0.48" stop-color="#8e8e8e"/><stop offset="0.51" stop-color="#7e7e7e"/><stop offset="0.93" stop-color="#010101"/></linearGradient><linearGradient id="linear-gradient-2" x1="213.3" y1="-33.49" x2="243.3" y2="19.63" xlink:href="#linear-gradient"/><linearGradient id="linear-gradient-3" x1="84.13" y1="23.38" x2="93.75" y2="85.59" xlink:href="#linear-gradient"/><linearGradient id="linear-gradient-4" x1="108.28" y1="19.56" x2="117.9" y2="81.81" xlink:href="#linear-gradient"/><linearGradient id="linear-gradient-5" x1="128.3" y1="16.41" x2="137.9" y2="78.58" xlink:href="#linear-gradient"/><linearGradient id="linear-gradient-6" x1="150.95" y1="12.72" x2="160.59" y2="75.06" xlink:href="#linear-gradient"/><linearGradient id="linear-gradient-7" x1="171.67" y1="9.45" x2="181.3" y2="71.71" xlink:href="#linear-gradient"/><linearGradient id="linear-gradient-8" x1="195.31" y1="5.67" x2="204.95" y2="68.02" xlink:href="#linear-gradient"/><linearGradient id="linear-gradient-9" x1="210.48" y1="3.3" x2="220.1" y2="65.59" xlink:href="#linear-gradient"/><linearGradient id="linear-gradient-10" x1="226.4" y1="0.73" x2="236.03" y2="63.08" xlink:href="#linear-gradient"/></defs><title>Artboard 1</title><g class="cls-2"><path class="cls-3" d="M39.64,20.86A33.35,33.35,0,1,0,73,54.2,33.34,33.34,0,0,0,39.64,20.86Z"/></g><path class="cls-4" d="M39.38,82.52c0,.2-3,.36-6.74.36s-6.73-.16-6.73-.36,3-.37,6.73-.37S39.38,82.31,39.38,82.52Z"/><path class="cls-5" d="M15.5,76.51c0-.68,7.67-1.23,17.14-1.23s17.15.55,17.15,1.23-7.67,1.24-17.15,1.24S15.5,77.2,15.5,76.51Z"/><path class="cls-6" d="M55.34,69.86C55.34,71.07,45.25,72,32.8,72s-22.53-1-22.53-2.18,10.09-2.17,22.53-2.17S55.34,68.66,55.34,69.86Z"/><path class="cls-7" d="M59.89,54.49c0-3.15-12.14-5.7-27.11-5.7S5.67,51.34,5.67,54.49c0,1.68,3.49,3.2,9,4.24l-.09,0s.87.06.92.62-.52.57-1.27.75l0,0c-4.46.63-7.21,1.49-7.21,2.43,0,1.93,11.49,3.5,25.66,3.5s25.66-1.57,25.66-3.5c0-1-3-1.88-7.89-2.52-.53-.14-.89-.29-.86-.65.05-.56.91-.62.91-.62l0,0C56.25,57.75,59.89,56.21,59.89,54.49Z"/><path d="M52,36.66q-2.1,4.59-3.56,7.14a15.55,15.55,0,0,1-2.87,3.82,6,6,0,0,1-3,1.55,21.76,21.76,0,0,1-3.83.28H26.16v-29c1.43-2.48,5.06-7.06,12-6l-1.56-2.63A13.19,13.19,0,0,0,25.26,18c-.19-.5-.43-1.07-.73-1.69a14.55,14.55,0,0,1,11.2-5.86L33.31,8a19.75,19.75,0,0,0-9.83,6.36c-.28-.46-.59-.93-.94-1.41a17.33,17.33,0,0,1,9.11-5.83L29.31,5.5a23.1,23.1,0,0,0-8.22,5.71,20.48,20.48,0,0,0-8.64-5.62L9.82,7a18,18,0,0,1,9.89,5.93c-.32.45-.64.92-.93,1.41A17.54,17.54,0,0,0,8.26,8.23L6.5,10.18a16,16,0,0,1,11.21,6.17A18.33,18.33,0,0,0,17,18.11H17c-1.62-3-5-6.45-11.84-6.28L3.77,14.37s8.44-1.94,12.38,6.91V49.45H10.71v1.1h5.44v.05h2.28v-.05h1.69v.05h2.27v-.05h1.5v.05h2.27v-.05H54V36.66ZM27.56,4.42l-3.32-1L21,6.57l-3.8-3-2.73,1A25.59,25.59,0,0,1,21,9,20.07,20.07,0,0,1,27.56,4.42Z"/><path class="cls-8" d="M252,28.69a6.2,6.2,0,0,1,6.4,6.06,6,6,0,0,1-1.72,4.45,6.22,6.22,0,0,1-9-8.58A5.94,5.94,0,0,1,252,28.69Zm5.92,6.61a5.62,5.62,0,0,0-1.47-4.25,5.55,5.55,0,0,0-3.89-1.88,5.75,5.75,0,1,0,3.47,10,5.84,5.84,0,0,0,1.91-3.87s0,0,0,0A0,0,0,0,1,257.87,35.3Z"/><path class="cls-9" d="M250.4,35.13c0,1.18,0,1.89,0,3.06h-.93V31.3H252a4.8,4.8,0,0,1,2.2.28,1.94,1.94,0,0,1,.21,3,2.61,2.61,0,0,1-1.32.49c1.21.66,1.7,2.05,2.48,3.14H255a2,2,0,0,1-.55,0c-.11,0-.36-.52-.48-.69s-.31-.49-.44-.71a6,6,0,0,0-1-1.34,1.46,1.46,0,0,0-.58-.3C251.51,35.07,251,35.18,250.4,35.13Zm0-3c0,.79,0,1.41,0,2.23,1.13-.1,2.41.21,3.14-.21a1.18,1.18,0,0,0,.41-1.43c-.44-.94-2.27-.57-3.53-.64C250.36,32.07,250.36,32.08,250.38,32.11Z"/><path class="cls-10" d="M86.48,59.44H91.6a4.9,4.9,0,0,0,1.54-.21,2.5,2.5,0,0,0,1.19-1.16,14.39,14.39,0,0,0,1.15-2.88q.58-1.92,1.42-5.38h.81V60.26H80.34v-.82h2.19V35.08H80.34v-.82h9.8v.82H86.48Z"/><path class="cls-11" d="M109.66,34.26v.82H107V53.46a8.33,8.33,0,0,0,.44,2.89,5.1,5.1,0,0,0,1.12,1.86,3.87,3.87,0,0,0,1.53,1,5.22,5.22,0,0,0,1.74.3,6.32,6.32,0,0,0,2.39-.43,5.33,5.33,0,0,0,1.87-1.26,5.89,5.89,0,0,0,1.22-2,7.53,7.53,0,0,0,.44-2.64V35.08h-3.29v-.82H121v.82h-2.2V53.24a7.84,7.84,0,0,1-.51,2.95,6.5,6.5,0,0,1-1.44,2.23,6.19,6.19,0,0,1-2.23,1.43,8.15,8.15,0,0,1-2.91.49c-3,0-5.16-.64-6.54-1.92s-2.09-3.22-2.09-5.82V35.08h-2.19v-.82Z"/><polygon class="cls-12" points="122.17 34.26 131.31 34.26 131.31 35.08 128.6 35.08 134.01 44.26 140.67 35.08 137.67 35.08 137.67 34.26 143.89 34.26 143.89 35.08 141.77 35.08 134.53 45.23 142.13 59.44 143.67 59.44 143.67 60.26 134.75 60.26 134.75 59.44 137.89 59.44 132 47.86 125.24 59.44 129.04 59.44 129.04 60.26 122.24 60.26 122.24 59.44 124.14 59.44 131.53 46.92 124.29 35.08 122.17 35.08 122.17 34.26"/><path class="cls-13" d="M145.79,47.26a14.28,14.28,0,0,1,.88-5.3A15.12,15.12,0,0,1,149,38a10.15,10.15,0,0,1,3.34-2.75,8.83,8.83,0,0,1,8,0A10.18,10.18,0,0,1,163.65,38a14.12,14.12,0,0,1,2.32,4.3,15,15,0,0,1,.88,5,16.78,16.78,0,0,1-.88,5.62,10.71,10.71,0,0,1-2.32,4,12.18,12.18,0,0,1-3.35,2.44,8.75,8.75,0,0,1-8,0A10,10,0,0,1,149,56.56a15.32,15.32,0,0,1-2.32-4,14.28,14.28,0,0,1-.88-5.32m4.53,0a43.39,43.39,0,0,0,.37,6.14A9.43,9.43,0,0,0,151.8,57a5.24,5.24,0,0,0,1.87,1.79,6,6,0,0,0,5.3,0,4.75,4.75,0,0,0,1.86-2.09A12.85,12.85,0,0,0,162,53.1a37.07,37.07,0,0,0,.37-5.84,37,37,0,0,0-.37-5.84,12.85,12.85,0,0,0-1.12-3.63A4.75,4.75,0,0,0,159,35.7a6,6,0,0,0-5.3,0,4.77,4.77,0,0,0-1.87,2.09,12.8,12.8,0,0,0-1.11,3.93,38.36,38.36,0,0,0-.37,5.54"/><path class="cls-14" d="M168.27,60.26v-.82h2.13l8.48-25.18h2.34l8,25.18h1.39v.82h-9.07v-.82h3.73l-3-9.63H174.6l-3.18,9.63h3.51v.82ZM174.86,49h7.2l-3.47-11h-.08Z"/><path class="cls-15" d="M194.34,48.39q.58,2.63,1.17,5.2a12.27,12.27,0,0,0,1.32,3.71,4.69,4.69,0,0,0,1.7,1.63,4.87,4.87,0,0,0,2.29.51,7,7,0,0,0,2.34-.4,5.58,5.58,0,0,0,1.9-1.13,5.37,5.37,0,0,0,1.26-1.74,5.28,5.28,0,0,0,.46-2.22,4.22,4.22,0,0,0-1-3,5.4,5.4,0,0,0-2.52-1.56c-1-.3-2.1-.66-3.28-1.07a20.75,20.75,0,0,1-3.27-1.49,8,8,0,0,1-2.52-2.21,4.91,4.91,0,0,1-1-3,7.49,7.49,0,0,1,.61-3,6.85,6.85,0,0,1,1.7-2.35,7.83,7.83,0,0,1,2.63-1.52,10,10,0,0,1,3.4-.54,25.84,25.84,0,0,1,4.52.43,16.67,16.67,0,0,1,3.82,1.07v8.41h-.8l-1.32-5.25a4.54,4.54,0,0,0-2.73-3,10.27,10.27,0,0,0-3.82-.8,6.07,6.07,0,0,0-2.21.38,5.86,5.86,0,0,0-1.75,1.08,4.72,4.72,0,0,0-1.16,1.58,4.78,4.78,0,0,0-.4,1.92,3.78,3.78,0,0,0,.38,1.76,2.14,2.14,0,0,0,1.21,1c.55.21,1.26.49,2.12.85s1.92.78,3.16,1.26,2.48,1,3.42,1.5A9.19,9.19,0,0,1,208.22,48a5,5,0,0,1,1.24,2,6.21,6.21,0,0,1,.39,2,7.7,7.7,0,0,1-.7,3.28,7.57,7.57,0,0,1-2,2.63,9,9,0,0,1-3,1.73,11.29,11.29,0,0,1-3.86.62,9.85,9.85,0,0,1-1.73-.16,17.58,17.58,0,0,1-1.87-.46A13.78,13.78,0,0,1,195,59a10.71,10.71,0,0,1-1.43-.81V48.39Z"/><polygon class="cls-16" points="213.1 60.26 213.1 59.44 215.29 59.44 215.29 35.08 213.1 35.08 213.1 34.26 221.44 34.26 221.44 35.08 219.25 35.08 219.25 59.44 221.44 59.44 221.44 60.26 213.1 60.26"/><path class="cls-17" d="M226.19,48.39q.59,2.63,1.17,5.2a12.27,12.27,0,0,0,1.32,3.71,4.61,4.61,0,0,0,1.7,1.63,4.82,4.82,0,0,0,2.28.51A6.93,6.93,0,0,0,235,59a5.49,5.49,0,0,0,1.9-1.13,5.25,5.25,0,0,0,1.27-1.74,5.44,5.44,0,0,0,.45-2.22,4.22,4.22,0,0,0-1-3,5.43,5.43,0,0,0-2.53-1.56c-1-.3-2.1-.66-3.27-1.07a20.34,20.34,0,0,1-3.27-1.49A8,8,0,0,1,226,44.67a4.85,4.85,0,0,1-1-3,7.32,7.32,0,0,1,.61-3,6.72,6.72,0,0,1,1.7-2.35A7.74,7.74,0,0,1,230,34.8a9.9,9.9,0,0,1,3.4-.54,25.64,25.64,0,0,1,4.51.43,16.78,16.78,0,0,1,3.83,1.07v8.41h-.81l-1.32-5.25a4.52,4.52,0,0,0-2.72-3,10.31,10.31,0,0,0-3.82-.8,6,6,0,0,0-2.21.38,5.91,5.91,0,0,0-1.76,1.08,4.69,4.69,0,0,0-1.15,1.58,4.62,4.62,0,0,0-.4,1.92,3.78,3.78,0,0,0,.38,1.76,2.14,2.14,0,0,0,1.21,1c.55.21,1.25.49,2.12.85s1.92.78,3.16,1.26,2.48,1,3.42,1.5A9.38,9.38,0,0,1,240.07,48a5,5,0,0,1,1.24,2,6.47,6.47,0,0,1,.39,2,7.85,7.85,0,0,1-.7,3.28,7.69,7.69,0,0,1-1.95,2.63,9.2,9.2,0,0,1-3,1.73,11.19,11.19,0,0,1-3.85.62,10,10,0,0,1-1.74-.16,18,18,0,0,1-1.86-.46,13.93,13.93,0,0,1-1.78-.67,10.54,10.54,0,0,1-1.42-.81V48.39Z"/></svg>