<svg xmlns="http://www.w3.org/2000/svg" viewBox="0 0 44 44.27"><defs><style>.cls-1{fill:#999;}</style></defs><title>phone</title><g id="Layer_2" data-name="Layer 2"><g id="Layer_1-2" data-name="Layer 1"><path class="cls-1" d="M38.31,0c-1.51,6.52-4.87,11.19-7.67,16.42C27,11.6,32.08.35,38.31,0Z"/><path class="cls-1" d="M39,.73c.43-.06.65.08.73.36,4.13,2.44,4.65,7.59,4,12.05C42.17,24.57,24.3,42.9,12.4,44.15,7.45,44.66,2,43.64.36,39c6.57-1.47,11-5.07,16.42-7.66a12.86,12.86,0,0,0,.73,2.55c7.6-3,12.75-8.42,16.05-15.69,0-1.29-2.07-.61-2.55-1.46A77.39,77.39,0,0,0,39,.73Z"/><path class="cls-1" d="M16.05,30.28c-4.25,3.9-10,6.26-16,8.39C.11,32.34,9.75,28.16,16.05,30.28Z"/></g></g></svg>